# xmcd
#
# Track frame offsets:
#	150
#	20322
#	43565
#	64917
#	81230
#	86595
#	105427
#	122625
#	139842
#	157412
#	180342
#	198437
#	218722
#
# Disc length: 3151 seconds
#
# Revision: 0
# Processed by: cddbd v1.4PL0 Copyright (c) Steve Scherf et al.
# Submitted via: dBpowerAMP V4.0
#
DISCID=ae0c4d0d
DTITLE=Gary Moore - Limited Edition Vol. 2
DYEAR=1995
DGENRE=Blues
TTITLE0=Hiroshima
TTITLE1=Nuclear Attack
TTITLE2=Run To Your Mama
TTITLE3=Don't Let Me Be Misunderstood
TTITLE4=Dirty Fingers
TTITLE5=You
TTITLE6=Really Gonna Rock Tonight
TTITLE7=Kidnapped
TTITLE8=The Woman's In Love
TTITLE9=Bad News
TTITLE10=Because Of Your Love
TTITLE11=Dancin'
TTITLE12=Lonely Nights
EXTD=CD Telefonkarten Edition, Robert Gerke
EXTT0=
EXTT1=
EXTT2=
EXTT3=
EXTT4=
EXTT5=
EXTT6=
EXTT7=
EXTT8=
EXTT9=
EXTT10=
EXTT11=
EXTT12=
PLAYORDER=
